<svg width="20" height="20" viewBox="0 0 20 20" fill="none" xmlns="http://www.w3.org/2000/svg">
<path
    d="M11.6668 11.8767V18.3333H3.3335C3.33324 17.3157 3.56593 16.3116 4.01375 15.3978C4.46156 14.4841 5.11261 13.6849 5.91701 13.0617C6.72141 12.4384 7.65781 12.0076 8.65446 11.8022C9.6511 11.5968 10.6815 11.6223 11.6668 11.8767ZM10.0002 10.8333C7.23766 10.8333 5.00016 8.59584 5.00016 5.83334C5.00016 3.07084 7.23766 0.833336 10.0002 0.833336C12.7627 0.833336 15.0002 3.07084 15.0002 5.83334C15.0002 8.59584 12.7627 10.8333 10.0002 10.8333ZM15.0002 14.1667V11.6667H16.6668V14.1667H19.1668V15.8333H16.6668V18.3333H15.0002V15.8333H12.5002V14.1667H15.0002Z"
    fill="#0085FF"
  />
</svg>
