<svg xmlns="http://www.w3.org/2000/svg" width="40" height="20" fill="none" aria-hidden="true" class="YfxXw" viewBox="0 0 96 48"><path fill="currentColor" fill-rule="evenodd" d="M54 20c-.036.044 1-9 1-9h14c2 0 8 9 8 9H54zm-26 0 13.357-7.646S44 11 46 11h7s-.968 9.046-1 9H28zm58.5 1.5c-2-2-9.5-8.5-13.134-11.067C72.14 9.568 71 9 69 9H46c-3 0-8 3-8 3l-14 8s-6.5 1.5-10.5 2.5C11.42 23.02 9 25.131 9 27c0 1-.25 1.5-.5 2S8 30 8 31v2c0 2 1 3 3 3h2c0-4.973 4.029-9 9-9a9 9 0 0 1 9 9h32c0-4.973 4.029-9 9-9a9 9 0 0 1 9 9h5c2 0 3-1 3-3v-2c0-1-.25-1.5-.5-2s-.5-1-.5-2c0-2-.44-4.44-1.5-5.5zM65 36a7 7 0 1 1 14 0 7 7 0 0 1-14 0zm3 .002A4 4 0 1 0 75.998 36a4 4 0 0 0-7.998.002zM22 29a7.001 7.001 0 1 0 .002 13.998A7.001 7.001 0 0 0 22 29zm-.001 11a4 4 0 1 1 0-7.998A4 4 0 0 1 22 40z" clip-rule="evenodd"/></svg>