<svg width="84" height="85" viewBox="0 0 84 85" fill="none" xmlns="http://www.w3.org/2000/svg">
<path d="M83.1302 34.2061C87.1168 51.2377 76.8657 68.1269 63.2688 77.2484C49.6719 86.4413 32.7292 87.8665 19.4882 79.315C6.1761 70.8348 -3.36308 52.3779 1.12176 34.7049C5.6066 16.9606 24.1866 -0.0710393 42.5531 0.000222843C60.9908 0.071485 79.1437 17.1744 83.1302 34.2061Z" fill="#EDF1F6"/>
<path d="M62.5913 38.5357C62.5761 38.5319 60.6538 38.0827 52.6932 36.2222L49.2719 30.7101C48.8328 30.0028 47.9075 29.7876 47.2048 30.2298C46.5024 30.6719 46.2888 31.6038 46.7278 32.3111L49.7439 37.1703C49.2483 37.4195 48.6988 37.5523 48.1286 37.5523H38.6577L37.8685 34.518C37.6458 33.6597 37.1389 32.8894 36.4443 32.3513C33.8421 30.3244 30 32.183 30 35.5378V36.2124L21.8968 37.1925C19.7904 37.4466 18 39.3502 18 41.6826V50.3908C18 51.2249 18.6716 51.9012 19.5 51.9012H23.4695C24.1165 54.0823 26.1262 55.6772 28.5 55.6772C30.8737 55.6772 32.8833 54.0823 33.5305 51.9012H50.4695C51.1166 54.0823 53.1263 55.6772 55.5 55.6772C57.8738 55.6772 59.8834 54.0823 60.5305 51.9012H64.5C65.3285 51.9012 66 51.2249 66 50.3908V42.9317C65.9999 40.8486 64.5983 39.0409 62.5913 38.5357ZM33.9993 34.5315C34.4508 34.5315 34.8508 34.8376 34.9661 35.2823L35.5565 37.5523H35.2828C34.4812 37.5523 33.6858 37.3137 33 36.8362V35.5379C33 34.9829 33.4483 34.5315 33.9993 34.5315ZM28.5 52.6564C27.2593 52.6564 26.25 51.6401 26.25 50.3908C26.25 49.1415 27.2593 48.1251 28.5 48.1251C29.7407 48.1251 30.75 49.1415 30.75 50.3908C30.75 51.6401 29.7407 52.6564 28.5 52.6564ZM55.4999 52.6564C54.2593 52.6564 53.2499 51.6401 53.2499 50.3908C53.2499 49.1415 54.2593 48.1251 55.4999 48.1251C56.7405 48.1251 57.7499 49.1415 57.7499 50.3908C57.7499 51.6401 56.7406 52.6564 55.4999 52.6564ZM60.5304 48.8804C59.8834 46.6992 57.8737 45.1043 55.4999 45.1043C53.1262 45.1043 51.1166 46.6992 50.4694 48.8804H33.5305C32.8834 46.6992 30.8737 45.1043 28.5 45.1043C26.1262 45.1043 24.1166 46.6992 23.4695 48.8804H21V41.6826C21 40.9404 21.5467 40.301 22.2741 40.1894L31.0317 39.1302C32.2493 40.0651 33.7337 40.5731 35.2824 40.5731H48.1288C49.6048 40.5731 51.0072 40.09 52.1577 39.1982L61.8742 41.4691C62.5376 41.641 63.0001 42.2409 63.0001 42.9317V43.5939H62.2501C61.4216 43.5939 60.7501 44.2702 60.7501 45.1043C60.7501 45.9385 61.4216 46.6147 62.2501 46.6147H63.0001V48.8804H60.5304Z" fill="#C7CAD0"/>
</svg>
