<svg width="84" height="85" viewBox="0 0 84 85" fill="none" xmlns="http://www.w3.org/2000/svg">
<path d="M62.7117 76.418L62.7087 76.42C49.3795 85.4318 32.8743 86.7698 20.0308 78.475L20.0255 78.4716C7.02173 70.1879 -2.27228 52.145 2.09104 34.9509L2.09127 34.9499C4.27573 26.3071 9.91376 17.7838 17.2848 11.4291C24.6579 5.0727 33.6701 0.965764 42.5493 1.00022L42.5531 0.000222843L42.5493 1.00022C51.4657 1.03468 60.3902 5.19476 67.6029 11.4961C74.8155 17.7972 80.2191 26.1564 82.1566 34.434C86.017 50.9271 76.0929 67.4411 62.7117 76.418Z" stroke="url(#paint0_linear)" stroke-width="2"/>
<path d="M40.0469 39.1875C40.0469 40.3956 39.0675 41.375 37.8594 41.375C36.6513 41.375 35.6719 40.3956 35.6719 39.1875C35.6719 37.9794 36.6513 37 37.8594 37C39.0675 37 40.0469 37.9794 40.0469 39.1875Z" fill="url(#paint1_linear)"/>
<path d="M43.25 48.875C44.6307 48.875 45.75 47.7557 45.75 46.375C45.75 44.9943 44.6307 43.875 43.25 43.875C41.8693 43.875 40.75 44.9943 40.75 46.375C40.75 47.7557 41.8693 48.875 43.25 48.875Z" fill="url(#paint2_linear)"/>
<path fill-rule="evenodd" clip-rule="evenodd" d="M57.3363 40.75C57.7693 40.0035 58.5767 39.5 59.5 39.5C60.8785 39.5 62 40.6215 62 42C62 43.3785 60.8785 44.5 59.5 44.5C58.5767 44.5 57.7693 43.9965 57.3363 43.25H55.0656C54.8109 45.9327 53.7462 48.3826 52.1182 50.3505L53.7283 51.9605C54.5623 51.7388 55.4892 51.9538 56.1421 52.6066C57.1169 53.5813 57.1169 55.1673 56.1421 56.1421C55.1673 57.117 53.5813 57.1169 52.6066 56.1421C51.9538 55.4892 51.7388 54.5623 51.9605 53.7283L50.3505 52.1182C48.3826 53.7462 45.9327 54.8109 43.25 55.0656V57.3363C43.9965 57.7693 44.5 58.5767 44.5 59.5C44.5 60.8785 43.3785 62 42 62C40.6215 62 39.5 60.8785 39.5 59.5C39.5 58.5767 40.0035 57.7693 40.75 57.3363V55.0656C38.0673 54.8109 35.6174 53.7462 33.6495 52.1182L32.0395 53.7283C32.2612 54.5623 32.0463 55.4892 31.3934 56.1421C30.4186 57.117 28.8326 57.1169 27.8579 56.1421C26.8831 55.1674 26.8831 53.5814 27.8579 52.6066C28.5108 51.9538 29.4377 51.7388 30.2717 51.9605L31.8818 50.3505C30.2538 48.3826 29.1891 45.9327 28.9344 43.25H26.6637C26.2307 43.9965 25.4233 44.5 24.5 44.5C23.1215 44.5 22 43.3785 22 42C22 40.6215 23.1215 39.5 24.5 39.5C25.4233 39.5 26.2307 40.0035 26.6637 40.75H28.9344C29.1891 38.0673 30.2538 35.6174 31.8818 33.6495L30.2717 32.0395C29.4064 32.2695 28.49 32.0255 27.8579 31.3934C26.8831 30.4187 26.8831 28.8327 27.8579 27.8579C28.8327 26.883 30.4187 26.8831 31.3934 27.8579C32.0463 28.5108 32.2612 29.4377 32.0395 30.2717L33.6495 31.8818C35.6174 30.2538 38.0673 29.1891 40.75 28.9344V26.6637C40.0035 26.2307 39.5 25.4233 39.5 24.5C39.5 23.1215 40.6215 22 42 22C43.3785 22 44.5 23.1215 44.5 24.5C44.5 25.4233 43.9965 26.2307 43.25 26.6637V28.9344C45.9327 29.1891 48.3826 30.2538 50.3505 31.8818L51.9605 30.2717C51.7388 29.4377 51.9538 28.5108 52.6066 27.8579C53.5813 26.8831 55.1673 26.883 56.1421 27.8579C57.1169 28.8326 57.1169 30.4186 56.1421 31.3934C55.509 32.0266 54.5924 32.2692 53.7283 32.0395L52.1182 33.6495C53.7462 35.6174 54.8109 38.0673 55.0656 40.75H57.3363ZM43.25 52V52.5516C48.1117 51.9797 51.9797 48.1117 52.5516 43.25H52C51.3097 43.25 50.75 42.6903 50.75 42C50.75 41.3097 51.3097 40.75 52 40.75H52.5516C51.9797 35.8883 48.1117 32.0203 43.25 31.4484V32C43.25 32.6903 42.6903 33.25 42 33.25C41.3097 33.25 40.75 32.6903 40.75 32V31.4484C35.8883 32.0203 32.0203 35.8883 31.4484 40.75H32C32.6903 40.75 33.25 41.3097 33.25 42C33.25 42.6903 32.6903 43.25 32 43.25H31.4484C32.0203 48.1117 35.8883 51.9797 40.75 52.5516V52C40.75 51.3097 41.3097 50.75 42 50.75C42.6903 50.75 43.25 51.3097 43.25 52Z" fill="url(#paint4_linear)"/>
<defs>
<linearGradient id="paint0_linear" x1="84" y1="-8" x2="8.17719e-06" y2="85" gradientUnits="userSpaceOnUse">
<stop stop-color="#025FEA"/>
<stop offset="1" stop-color="#70E4EF"/>
</linearGradient>
<linearGradient id="paint1_linear" x1="62" y1="22" x2="22.4789" y2="62.4677" gradientUnits="userSpaceOnUse">
<stop stop-color="#025FEA"/>
<stop offset="1" stop-color="#70E4EF"/>
</linearGradient>
<linearGradient id="paint2_linear" x1="62" y1="22" x2="22.4789" y2="62.4677" gradientUnits="userSpaceOnUse">
<stop stop-color="#025FEA"/>
<stop offset="1" stop-color="#70E4EF"/>
</linearGradient>
<linearGradient id="paint3_linear" x1="62" y1="22" x2="22.4789" y2="62.4677" gradientUnits="userSpaceOnUse">
<stop stop-color="#025FEA"/>
<stop offset="1" stop-color="#70E4EF"/>
</linearGradient>
<linearGradient id="paint4_linear" x1="62" y1="22" x2="22.4789" y2="62.4677" gradientUnits="userSpaceOnUse">
<stop stop-color="#025FEA"/>
<stop offset="1" stop-color="#70E4EF"/>
</linearGradient>
</defs>
</svg>
