<svg width="24" height="24" viewBox="0 0 24 24" fill="none" xmlns="http://www.w3.org/2000/svg">
<path d="M7 17C7 17.5523 7.44772 18 8 18H16C16.5523 18 17 17.5523 17 17C17 16.4477 16.5523 16 16 16H8C7.44772 16 7 16.4477 7 17Z" fill="#70BFEB"/>
<path d="M17 13C17 13.5523 16.5523 14 16 14H8C7.44772 14 7 13.5523 7 13C7 12.4477 7.44772 12 8 12H16C16.5523 12 17 12.4477 17 13Z" fill="#70BFEB"/>
<path d="M7 9C7 9.55228 7.44772 10 8 10H10C10.5523 10 11 9.55228 11 9C11 8.44772 10.5523 8 10 8H8C7.44772 8 7 8.44772 7 9Z" fill="#70BFEB"/>
<path fill-rule="evenodd" clip-rule="evenodd" d="M6 2C4.34315 2 3 3.34315 3 5V19C3 20.6569 4.34315 22 6 22H18C19.6569 22 21 20.6569 21 19V9C21 5.13401 17.866 2 14 2H6ZM6 4H13V8C13 8.55228 13.4477 9 14 9H19V19C19 19.5523 18.5523 20 18 20H6C5.44772 20 5 19.5523 5 19V5C5 4.44772 5.44772 4 6 4ZM15 4.10002C16.6113 4.4271 17.9413 5.52906 18.584 7H15V4.10002Z" fill="#70BFEB"/>
</svg>
