<svg width="24" height="24" viewBox="0 0 24 24" fill="none" xmlns="http://www.w3.org/2000/svg">
<path d="M11 18C10.4477 18 10 17.5523 10 17V16H9C8.44772 16 8 15.5523 8 15C8 14.4477 8.44772 14 9 14H10V13C10 12.4477 10.4477 12 11 12C11.5523 12 12 12.4477 12 13V14H13C13.5523 14 14 14.4477 14 15C14 15.5523 13.5523 16 13 16H12V17C12 17.5523 11.5523 18 11 18Z" fill="#70E4EF"/>
<path fill-rule="evenodd" clip-rule="evenodd" d="M6 2C4.34315 2 3 3.34315 3 5V19C3 20.6569 4.34315 22 6 22H18C19.6569 22 21 20.6569 21 19V9C21 5.13401 17.866 2 14 2H6ZM6 4H13V8C13 8.55228 13.4477 9 14 9H19V19C19 19.5523 18.5523 20 18 20H6C5.44772 20 5 19.5523 5 19V5C5 4.44772 5.44772 4 6 4ZM15 4.10002C16.6113 4.4271 17.9413 5.52906 18.584 7H15V4.10002Z" fill="#70E4EF"/>
</svg>
