<svg width="84" height="85" viewBox="0 0 84 85" fill="none" xmlns="http://www.w3.org/2000/svg">
<path d="M62.7117 76.418L62.7087 76.42C49.3795 85.4318 32.8743 86.7698 20.0308 78.475L20.0255 78.4716C7.02173 70.1879 -2.27228 52.145 2.09104 34.9509L2.09127 34.9499C4.27573 26.3071 9.91376 17.7838 17.2848 11.4291C24.6579 5.0727 33.6701 0.965764 42.5493 1.00022L42.5531 0.000222843L42.5493 1.00022C51.4657 1.03468 60.3902 5.19476 67.6029 11.4961C74.8155 17.7972 80.2191 26.1564 82.1566 34.434C86.017 50.9271 76.0929 67.4411 62.7117 76.418Z" stroke="url(#paint0_linear)" stroke-width="2"/>
<path d="M32.4791 29.8047C33.3037 30.4846 34.5261 30.1013 34.8299 29.0524C35.0833 28.1761 35.3059 27.2882 35.5286 26.3999C35.611 26.0715 35.6936 25.7421 35.7775 25.4141C35.8643 25.0597 36.0741 24.915 36.4212 24.915C36.8408 24.9222 37.2675 24.9295 37.6871 24.9078C37.9836 24.8933 38.056 25.0163 38.056 25.2911C38.0451 26.1223 38.0464 26.9575 38.0478 27.7907V27.7923C38.0482 28.0678 38.0487 28.3437 38.0487 28.6184C38.0487 28.7848 38.0487 28.9584 38.0921 29.1175C38.273 29.8264 38.9529 30.2676 39.7269 30.1881C40.4068 30.1157 40.9854 29.4937 40.9927 28.7848C41.0071 27.6275 41.0071 26.4702 40.9927 25.3128C40.9854 24.9873 41.0939 24.8861 41.405 24.9078C41.7522 24.9295 42.1066 24.9222 42.4538 24.915C42.8299 24.9078 43.0542 25.0597 43.141 25.4503C43.3246 26.2236 43.5212 26.9969 43.7178 27.7702C43.8154 28.1542 43.913 28.5382 44.009 28.9222C44.226 29.7902 45.0071 30.2966 45.839 30.094C46.6491 29.8987 47.112 29.1103 46.9167 28.2495C46.8334 27.8776 46.7386 27.5058 46.6426 27.1288L46.6057 26.9837C46.5513 26.7708 46.493 26.558 46.4347 26.3449C46.3146 25.9063 46.1942 25.4664 46.1066 25.0235C45.7883 23.4611 44.9203 22.4195 43.358 22H35.546C35.4842 22.0218 35.4205 22.0437 35.3568 22.0655C35.2939 22.0871 35.231 22.1086 35.1699 22.1302C34.0777 22.5208 33.3109 23.2514 32.9854 24.3725C32.6867 25.4181 32.4245 26.4774 32.1625 27.5359C32.0946 27.81 32.0267 28.0842 31.9583 28.358C31.8137 28.9367 32.0307 29.4358 32.4791 29.8047Z" fill="url(#paint1_linear)"/>
<path d="M26.8807 39.056C26.8879 38.188 26.8951 37.32 26.8734 36.452C26.8662 36.0976 26.953 35.9746 27.3291 35.9746C28.3878 35.9901 29.4466 35.9872 30.5053 35.9842C30.9294 35.983 31.3535 35.9818 31.7776 35.9818H31.7829C38.4574 35.9818 45.132 35.9818 51.8065 35.9746C52.1176 35.9746 52.2333 36.0542 52.2261 36.3797C52.2106 37.0103 52.2135 37.6372 52.2165 38.2657C52.2176 38.5167 52.2188 38.768 52.2188 39.0198C52.2261 39.924 52.8264 40.5388 53.7017 40.5388C54.5407 40.5388 55.1555 39.9095 55.1628 39.0343C55.1676 38.4653 55.166 37.893 55.1644 37.3217V37.3187C55.1636 37.0342 55.1628 36.75 55.1628 36.4665C55.1628 36.2217 55.1628 36.1006 55.2234 36.0406C55.2827 35.9818 55.4002 35.9818 55.6329 35.9818C55.7103 35.9818 55.7878 35.9802 55.8649 35.9786C56.0185 35.9754 56.1709 35.9723 56.3201 35.9818C57.1519 36.0542 57.7089 35.6853 58.0344 34.9403V34.0723C57.7017 33.3272 57.1447 33.0234 56.3201 33.0234C45.1157 33.0379 33.9186 33.0379 22.7143 33.0234C21.8897 33.0234 21.3255 33.3272 21 34.0723V34.9403C21.3327 35.6853 21.8897 36.0469 22.7143 35.9818C22.87 35.9702 23.0257 35.9732 23.1814 35.9762C23.315 35.9788 23.4487 35.9813 23.5823 35.9746C23.8499 35.9601 23.9439 36.0542 23.9367 36.329C23.9223 37.2291 23.9294 38.1293 23.9366 39.0293L23.9367 39.0415C23.9439 39.9095 24.5588 40.5388 25.4051 40.5388C26.2731 40.5388 26.8734 39.9384 26.8807 39.056Z" fill="url(#paint2_linear)"/>
<path fill-rule="evenodd" clip-rule="evenodd" d="M63.5479 59.0617C63.5418 59.4716 63.5356 59.8804 63.5606 60.2858C63.6113 61.1104 63.2641 61.6674 62.5118 62.0073H57.8102C57.0507 61.6601 56.6962 61.0815 56.7758 60.2496C56.8047 59.9531 56.6962 59.8518 56.3924 59.8518C52.6673 59.859 48.9349 59.859 45.2026 59.8518C44.906 59.8518 44.7903 59.9459 44.8192 60.2424C44.8988 61.0742 44.5443 61.6601 43.7849 62.0001H39.0832C38.3382 61.6746 38.0272 61.1104 38.0344 60.2858C38.0344 60.0761 38.0362 59.8681 38.038 59.6602C38.0398 59.4522 38.0416 59.2443 38.0416 59.0345H28.8843C28.8231 59.0147 28.7618 58.9951 28.7005 58.9756C28.2475 58.8314 27.7948 58.6872 27.387 58.4196C25.774 57.3708 25.0434 55.548 25.5136 53.6818C26.6565 49.1755 27.7993 44.6692 28.9277 40.1556C29.1519 39.2948 29.7089 38.8536 30.5335 38.897C31.2424 38.9259 31.7849 39.4612 31.9006 40.2135C31.9343 40.4222 31.8865 40.6183 31.8389 40.8136L31.8283 40.8572C31.4702 42.2715 31.1121 43.684 30.754 45.0965C30.396 46.5086 30.038 47.9207 29.68 49.3346C29.5888 49.6979 29.4983 50.0618 29.4077 50.4261L29.4073 50.4277L29.407 50.4289C29.0884 51.7103 28.7688 52.9956 28.4142 54.2677C28.1176 55.3238 28.8481 56.1267 29.8608 56.1122C31.3687 56.0967 32.8728 56.0997 34.3786 56.1026C34.982 56.1038 35.5857 56.105 36.1899 56.105C36.3301 56.105 36.4709 56.1038 36.6119 56.1027L36.6129 56.1027C36.9663 56.0997 37.3214 56.0967 37.6727 56.1122C37.9404 56.1194 38.0344 56.0399 38.0489 55.8012C38.0489 54.7668 38.0489 53.7252 38.0416 52.6836C38.0416 52.6439 38.0434 52.6059 38.0453 52.5679C38.0471 52.5299 38.0489 52.492 38.0489 52.4522V49.2671C38.0489 46.2661 38.0489 43.2651 38.0561 40.2641C38.0633 39.5408 38.6131 38.9187 39.293 38.8319C40.0742 38.7306 40.7903 39.1863 40.9566 39.9024C41 40.0977 41 40.3075 41 40.51V46.3545C41.3906 45.6312 41.7812 44.9079 42.1935 44.2062C43.3581 42.2388 45.1013 41.2406 47.3798 41.2117C49.6872 41.19 51.9874 41.1755 54.2876 41.2189C56.4937 41.2551 58.2369 42.1954 59.3653 44.1339C59.9986 45.2323 60.6102 46.3481 61.2202 47.4611L61.2256 47.4708C61.4011 47.7911 61.5765 48.1112 61.7523 48.4305C61.9621 48.8211 62.2008 49.19 62.4829 49.5444C63.2279 50.4847 63.604 51.5552 63.5534 52.7632C63.5245 53.4938 62.9024 54.1086 62.1718 54.1303C61.3689 54.1592 60.6311 53.624 60.6239 52.8789C60.6094 51.2948 59.3581 50.3184 57.7595 50.3111C53.1447 50.2967 48.5299 50.3039 43.9151 50.3111C42.9964 50.3184 42.1574 50.5715 41.5281 51.3093C41.1592 51.7433 41 52.2569 40.9928 52.8138V56.6981C41.0217 56.85 41.1085 56.9151 41.3183 56.9151C42.8952 56.9079 44.4792 56.9079 46.0561 56.9151C46.2659 56.9151 46.3888 56.8211 46.4973 56.6619C46.71 56.3429 46.9291 56.024 47.1482 55.705L47.1493 55.7034C47.2577 55.5455 47.3662 55.3877 47.4738 55.2298C47.7993 54.7451 48.255 54.5137 48.8481 54.5209L48.867 54.521C50.177 54.5282 51.4802 54.5353 52.7903 54.5137C53.3906 54.5064 53.8319 54.7451 54.1718 55.2153C54.2783 55.3634 54.3855 55.51 54.4925 55.6563C54.7197 55.9672 54.9465 56.2773 55.1628 56.5968C55.3219 56.8283 55.5028 56.9223 55.7921 56.9223C57.327 56.9115 58.866 56.9129 60.403 56.9142H60.4045C60.9166 56.9147 61.4291 56.9151 61.9404 56.9151C62.9892 56.9151 63.5534 57.4721 63.5534 58.5137C63.5534 58.6964 63.5507 58.8793 63.5479 59.0617ZM44.1441 46.8117C44.1111 46.8691 44.0781 46.9265 44.0453 46.9838C43.8427 47.3455 43.85 47.3599 44.2767 47.3599H57.2821C57.7451 47.3599 57.7451 47.3599 57.5136 46.9404C57.4676 46.859 57.4207 46.7776 57.3737 46.696C57.2286 46.444 57.0823 46.1901 56.9566 45.9278C56.3635 44.727 55.3581 44.1773 54.0706 44.1628C51.8789 44.1339 49.6872 44.1339 47.4955 44.1628C46.2225 44.1845 45.2243 44.7126 44.6384 45.9061C44.4869 46.2151 44.3148 46.5145 44.1441 46.8117Z" fill="url(#paint3_linear)"/>
<path d="M42.8154 53.6818C42.8154 54.5064 43.4447 55.1501 44.2693 55.1574C45.1156 55.1646 45.7594 54.5281 45.7594 53.689C45.7594 52.8644 45.1301 52.2207 44.3055 52.2134C43.4592 52.2062 42.8154 52.8355 42.8154 53.6818Z" fill="url(#paint4_linear)"/>
<path d="M57.2241 55.1572C56.3995 55.1499 55.7629 54.5134 55.7629 53.6888C55.7629 52.8425 56.3995 52.206 57.2458 52.2205C58.0704 52.2205 58.7069 52.857 58.7069 53.6816C58.7069 54.5206 58.0704 55.1572 57.2241 55.1572Z" fill="url(#paint5_linear)"/>
<defs>
<linearGradient id="paint0_linear" x1="84" y1="-8" x2="8.17719e-06" y2="85" gradientUnits="userSpaceOnUse">
<stop stop-color="#025FEA"/>
<stop offset="1" stop-color="#70E4EF"/>
</linearGradient>
<linearGradient id="paint1_linear" x1="63.5655" y1="22" x2="24.1706" y2="64.9177" gradientUnits="userSpaceOnUse">
<stop stop-color="#025FEA"/>
<stop offset="1" stop-color="#70E4EF"/>
</linearGradient>
<linearGradient id="paint2_linear" x1="63.5655" y1="22" x2="24.1706" y2="64.9177" gradientUnits="userSpaceOnUse">
<stop stop-color="#025FEA"/>
<stop offset="1" stop-color="#70E4EF"/>
</linearGradient>
<linearGradient id="paint3_linear" x1="63.5655" y1="22" x2="24.1706" y2="64.9177" gradientUnits="userSpaceOnUse">
<stop stop-color="#025FEA"/>
<stop offset="1" stop-color="#70E4EF"/>
</linearGradient>
<linearGradient id="paint4_linear" x1="63.5655" y1="22" x2="24.1706" y2="64.9177" gradientUnits="userSpaceOnUse">
<stop stop-color="#025FEA"/>
<stop offset="1" stop-color="#70E4EF"/>
</linearGradient>
<linearGradient id="paint5_linear" x1="63.5655" y1="22" x2="24.1706" y2="64.9177" gradientUnits="userSpaceOnUse">
<stop stop-color="#025FEA"/>
<stop offset="1" stop-color="#70E4EF"/>
</linearGradient>
</defs>
</svg>
