<svg width="84" height="85" viewBox="0 0 84 85" fill="none" xmlns="http://www.w3.org/2000/svg">
<path d="M62.7117 76.418L62.7087 76.42C49.3795 85.4318 32.8743 86.7698 20.0308 78.475L20.0255 78.4716C7.02173 70.1879 -2.27228 52.145 2.09104 34.9509L2.09127 34.9499C4.27573 26.3071 9.91376 17.7838 17.2848 11.4291C24.6579 5.0727 33.6701 0.965764 42.5493 1.00022L42.5531 0.000222843L42.5493 1.00022C51.4657 1.03468 60.3902 5.19476 67.6029 11.4961C74.8155 17.7972 80.2191 26.1564 82.1566 34.434C86.017 50.9271 76.0929 67.4411 62.7117 76.418Z" stroke="url(#paint0_linear)" stroke-width="2"/>
<path fill-rule="evenodd" clip-rule="evenodd" d="M41.2895 65.8381C41.4971 65.9467 41.7257 66 41.9524 66C42.181 66 42.4076 65.9467 42.6152 65.8381C42.9429 65.6667 50.661 61.579 56.5143 54.3067C57.0095 53.6914 56.9124 52.7924 56.2971 52.2971C55.6838 51.8038 54.7829 51.901 54.2876 52.5143C49.7733 58.1219 43.9048 61.7981 41.9524 62.9333C38.619 60.9943 23.8571 51.6229 23.8571 37.6952C23.8571 32.8229 27.8305 28.8571 32.7143 28.8571C36.1848 28.8571 39.2343 30.6819 40.6686 33.619C41.1486 34.6 42.7562 34.6 43.2362 33.619C44.6705 30.6819 47.72 28.8571 51.1905 28.8571C56.0743 28.8571 60.0476 32.821 60.0476 37.6952C60.0476 38.3048 60.0133 38.8971 59.9429 39.4895C59.8495 40.2743 60.4114 40.9848 61.1943 41.0762C61.979 41.179 62.6895 40.6076 62.781 39.8248C62.8629 39.1219 62.9048 38.419 62.9048 37.6952C62.9048 31.2457 57.6495 26 51.1905 26C47.4705 26 44.1105 27.6133 41.9524 30.3276C39.7943 27.6133 36.4343 26 32.7143 26C26.2552 26 21 31.2457 21 37.6952C21 55.0286 40.461 65.4038 41.2895 65.8381ZM44.7943 54.5714H44.8095C45.3638 54.5714 45.8667 54.2533 46.1028 53.7505L52.5962 39.9505L58.8305 50.0819C59.0914 50.5048 59.5524 50.7619 60.0476 50.7619H65.2857C66.0743 50.7619 66.7162 50.12 66.7162 49.3314C66.7162 48.5429 66.0762 47.9029 65.2876 47.9029H60.8476L53.6476 36.2019C53.3733 35.7562 52.8876 35.4876 52.3505 35.5238C51.8267 35.5543 51.36 35.8686 51.1371 36.3429L44.8476 49.7086L42.3067 43.9905C42.0762 43.4743 41.5638 43.1429 41 43.1429H35.7619C34.9733 43.1429 34.3333 43.7829 34.3333 44.5714C34.3333 45.36 34.9733 46 35.7619 46H40.0724L43.5048 53.7238C43.7314 54.2343 44.2362 54.5657 44.7943 54.5714Z" fill="url(#paint4_linear)"/>
<defs>
<linearGradient id="paint0_linear" x1="84" y1="-8" x2="8.17719e-06" y2="85" gradientUnits="userSpaceOnUse">
<stop stop-color="#025FEA"/>
<stop offset="1" stop-color="#70E4EF"/>
</linearGradient>
<linearGradient id="paint1_linear" x1="62" y1="22" x2="22.4789" y2="62.4677" gradientUnits="userSpaceOnUse">
<stop stop-color="#025FEA"/>
<stop offset="1" stop-color="#70E4EF"/>
</linearGradient>
<linearGradient id="paint2_linear" x1="62" y1="22" x2="22.4789" y2="62.4677" gradientUnits="userSpaceOnUse">
<stop stop-color="#025FEA"/>
<stop offset="1" stop-color="#70E4EF"/>
</linearGradient>
<linearGradient id="paint3_linear" x1="62" y1="22" x2="22.4789" y2="62.4677" gradientUnits="userSpaceOnUse">
<stop stop-color="#025FEA"/>
<stop offset="1" stop-color="#70E4EF"/>
</linearGradient>
<linearGradient id="paint4_linear" x1="62" y1="22" x2="22.4789" y2="62.4677" gradientUnits="userSpaceOnUse">
<stop stop-color="#025FEA"/>
<stop offset="1" stop-color="#70E4EF"/>
</linearGradient>
</defs>
</svg>