<svg width="312" height="312" viewBox="0 0 312 312" fill="none" xmlns="http://www.w3.org/2000/svg">
<rect width="312" height="312" fill="white"/>
<path d="M275.197 146.603C285.313 189.731 259.301 232.498 224.799 255.596C190.297 278.874 147.305 282.483 113.706 260.829C79.9274 239.355 55.722 192.618 67.1022 147.867C78.4822 102.934 125.629 59.8067 172.233 59.9872C219.018 60.1676 265.081 103.476 275.197 146.603Z" fill="#70E4EF"/>
<path d="M228.821 122.126C240.293 159.972 212.595 208.305 172.113 237.304C131.468 266.467 78.0384 276.462 53.1265 256.309C28.2146 235.994 31.8203 185.531 46.8985 142.606C62.1407 99.6798 88.8554 64.1269 127.698 60.3586C166.541 56.4265 217.184 84.1152 228.821 122.126Z" fill="#F91876"/>
<path d="M257.924 121.711C267.99 163.531 249.623 203.928 217.834 227.597C186.046 251.444 140.835 258.384 112.755 238.63C84.6755 218.699 73.5494 172.074 86.0884 126.694C98.6272 81.3142 134.831 37.3581 172.094 37.0022C209.534 36.6463 248.034 79.8905 257.924 121.711Z" fill="#025FEA"/>
<g style="mix-blend-mode:multiply">
<g style="mix-blend-mode:multiply">
<path d="M123.754 60.8562C125.054 60.6537 126.369 60.4876 127.698 60.3586C166.541 56.4265 217.184 84.1152 228.821 122.126C240.294 159.972 212.595 208.305 172.114 237.304C165.401 242.121 158.34 246.414 151.116 250.135C136.95 249.893 123.58 246.245 112.755 238.63C84.6755 218.699 73.5494 172.074 86.0884 126.694C92.8872 102.088 106.643 77.9012 123.754 60.8562Z" fill="#02096C"/>
</g>
</g>
<path d="M156.202 187.241C172.937 187.241 186.503 173.675 186.503 156.94C186.503 140.206 172.937 126.64 156.202 126.64C139.468 126.64 125.902 140.206 125.902 156.94C125.902 173.675 139.468 187.241 156.202 187.241Z" fill="white"/>
</svg>
