<svg width="38" height="38" viewBox="0 0 38 38" fill="none" xmlns="http://www.w3.org/2000/svg">
<path d="M37.327 17.8092C38.899 24.5113 34.8567 31.1573 29.495 34.7468C24.1334 38.3642 17.4524 38.925 12.2311 35.56C6.98183 32.2229 3.22027 24.96 4.98878 18.0055C6.75725 11.023 14.0839 4.32089 21.3263 4.34893C28.5967 4.37697 35.755 11.1071 37.327 17.8092Z" fill="#70E4EF"/>
<path d="M30.12 14.0053C31.9028 19.8868 27.5985 27.3977 21.3076 31.9042C14.9912 36.4362 6.68823 37.9893 2.81688 34.8577C-1.05446 31.7006 -0.494136 23.8587 1.84904 17.1879C4.21771 10.5172 8.3692 4.99224 14.4054 4.40665C20.4417 3.79559 28.3117 8.09846 30.12 14.0053Z" fill="#F91876"/>
<path d="M34.6426 13.9409C36.2069 20.4399 33.3527 26.7176 28.4127 30.3957C23.4727 34.1015 16.4469 35.18 12.0833 32.1103C7.71961 29.013 5.9906 21.7673 7.93918 14.7152C9.88772 7.66319 15.5138 0.832355 21.3046 0.777042C27.1228 0.721733 33.1057 7.44195 34.6426 13.9409Z" fill="#025FEA"/>
<g style="mix-blend-mode:multiply">
<g style="mix-blend-mode:multiply">
<path d="M13.7924 4.48397C13.9945 4.45251 14.1989 4.42669 14.4054 4.40665C20.4417 3.79559 28.3117 8.09846 30.12 14.0053C31.9029 19.8868 27.5985 27.3977 21.3076 31.9042C20.2645 32.6527 19.1671 33.3199 18.0445 33.8982C15.8431 33.8606 13.7654 33.2937 12.0833 32.1103C7.71961 29.013 5.9906 21.7673 7.93918 14.7153C8.99572 10.8915 11.1334 7.13279 13.7924 4.48397Z" fill="#02096C"/>
</g>
</g>
<path d="M18.8349 24.1243C21.4355 24.1243 23.5437 22.0161 23.5437 19.4156C23.5437 16.815 21.4355 14.7068 18.8349 14.7068C16.2344 14.7068 14.1262 16.815 14.1262 19.4156C14.1262 22.0161 16.2344 24.1243 18.8349 24.1243Z" fill="white"/>
</svg>
