<svg width="24" height="24" viewBox="0 0 24 24" fill="none" xmlns="http://www.w3.org/2000/svg">
<path fill-rule="evenodd" clip-rule="evenodd" d="M12 24C5.37258 24 0 18.6274 0 12C0 5.37258 5.37258 0 12 0C18.6274 0 24 5.37258 24 12C24 18.6274 18.6274 24 12 24ZM7.42864 16.6207V19.1822L9.82369 17.8205C10.4913 18.013 11.201 18.1168 11.9363 18.1168C15.8778 18.1168 19.0726 15.1355 19.0726 11.4584C19.0726 7.78106 15.8778 4.8 11.9363 4.8C7.99502 4.8 4.8 7.78106 4.8 11.4584C4.8 13.5407 5.82444 15.3999 7.42864 16.6207Z" fill="#B8C8D9"/>
<path fill-rule="evenodd" clip-rule="evenodd" d="M11.1742 9.6347L7.32567 13.7095L10.8282 11.7878L12.6582 13.7095L16.485 9.6347L13.0214 11.5228L11.1742 9.6347Z" fill="#B8C8D9"/>
</svg>
