<svg width="50" height="20" viewBox="0 0 50 54" fill="none" xmlns="http://www.w3.org/2000/svg" class="desktop">
<g clip-path="url(#clip0_1196_6301)">
<path d="M17.1245 24.5595C25.05 26.2014 31.5465 22.7534 32.9266 16.0971C34.3067 9.44077 29.7449 3.53884 21.6597 1.86588C13.894 0.255057 7.74355 3.60984 6.33241 10.4215C4.95233 17.0778 9.19906 22.9176 17.1245 24.5595Z" fill="#A88FF5"></path>
<path d="M23.093 42.5806C24.7349 34.6551 21.2869 28.1586 14.6306 26.7785C7.9743 25.3984 2.07237 29.9602 0.399419 38.0454C-1.20697 45.8111 2.14781 51.9571 8.95944 53.3683C15.6157 54.7483 21.4555 50.5016 23.0974 42.5762L23.093 42.5806Z" fill="#669999"></path>
<path d="M42.0945 29.4675C34.1691 27.8256 27.6725 31.2736 26.2924 37.9299C24.9124 44.5862 29.4741 50.4881 37.5593 52.1611C45.325 53.7675 51.471 50.4127 52.8822 43.6011C54.2622 36.9448 50.0155 31.105 42.0901 29.4631L42.0945 29.4675Z" fill="#B8753B"></path>
<path d="M36.0993 11.4202C34.4575 19.3457 37.9054 25.8422 44.5617 27.2223C51.2181 28.6024 57.12 24.0406 58.7929 15.9554C60.3993 8.18971 57.0445 2.04372 50.2329 0.632579C43.5766 -0.747496 37.7368 3.49923 36.0949 11.4247L36.0993 11.4202Z" fill="#FF7859"></path>
</g>
</svg>