<svg width="24" height="24" viewBox="0 0 24 24" fill="none" xmlns="http://www.w3.org/2000/svg">
<path fill-rule="evenodd" clip-rule="evenodd" d="M12 0C18.6274 0 24 5.37258 24 12C24 18.6274 18.6274 24 12 24C5.37258 24 0 18.6274 0 12C0 5.37258 5.37258 0 12 0ZM15.1971 10.4792C15.1387 10.005 14.993 9.63274 14.7341 9.30296C14.3981 8.87832 13.9686 8.62404 13.3328 8.4732C12.9184 8.37266 12.751 8.38421 12.6011 8.5211C12.4615 8.64936 12.4342 8.90648 12.5409 9.07298C12.6159 9.19383 12.7025 9.23713 12.9432 9.28438C13.2638 9.34336 13.4853 9.4199 13.6868 9.53512C14.1145 9.78209 14.3137 10.1686 14.335 10.7942C14.345 11.088 14.3704 11.1783 14.473 11.2825C14.6632 11.473 15.0016 11.4359 15.1452 11.208C15.1979 11.1221 15.2059 11.0847 15.2115 10.8852C15.2151 10.7617 15.2098 10.5779 15.1971 10.4792ZM15.2028 7.57008C16.2196 8.39239 16.7878 9.56114 16.8723 11.0138C16.9078 11.586 16.8606 11.7723 16.6588 11.8785C16.4766 11.9768 16.2703 11.9445 16.1287 11.7964C16.0349 11.7001 15.9989 11.5684 16.0002 11.3351C16.0044 10.6902 15.8558 9.97009 15.6142 9.47037C15.3346 8.88876 14.9025 8.39381 14.3588 8.03195C13.8826 7.71412 13.2523 7.49944 12.6413 7.44598C12.2449 7.4113 12.1034 7.34417 12.0273 7.15416C11.9802 7.04049 11.9926 6.84399 12.0479 6.75598C12.1001 6.67482 12.2174 6.58508 12.3002 6.56135C12.3881 6.53573 12.9001 6.58052 13.1781 6.63578C13.9373 6.7903 14.6298 7.10802 15.2028 7.57008ZM18.7261 16.6082C18.6977 16.5251 18.6314 16.3971 18.584 16.3235C18.2856 15.8729 16.6823 14.6181 15.8817 14.2078C15.4247 13.973 15.086 13.8947 14.8349 13.9682C14.565 14.0441 14.4228 14.1698 13.9705 14.732C13.7881 14.9573 13.601 15.1684 13.5513 15.2016C13.4281 15.287 13.1866 15.3558 13.0161 15.3558C12.6205 15.3534 11.9029 15.0972 11.3511 14.7604C10.9224 14.4995 10.373 14.0323 9.95143 13.5697C9.45405 13.0266 9.11542 12.5474 8.84777 12.0066C8.50201 11.3117 8.41438 10.8871 8.55883 10.5763C8.59436 10.4981 8.64174 10.4151 8.66302 10.3889C8.68435 10.3653 8.90699 10.1826 9.15327 9.98335C9.63644 9.59912 9.71458 9.51136 9.80457 9.24807C9.91825 8.91361 9.88748 8.57206 9.71222 8.22814C9.57721 7.96722 9.22434 7.39796 8.96856 7.03032C8.62989 6.54646 7.78676 5.5123 7.61858 5.37232C7.31544 5.12566 6.92706 5.08294 6.49835 5.24901C6.04604 5.42453 5.19815 6.10764 4.83578 6.58441C4.50895 7.01609 4.38347 7.32205 4.3645 7.72529C4.34793 8.05734 4.37634 8.19492 4.55161 8.61951C5.92288 11.9497 7.9691 14.6086 10.7803 16.7197C12.2487 17.8226 13.7716 18.6623 15.3512 19.2363C16.2725 19.5707 16.6728 19.5873 17.1441 19.3122C17.343 19.1936 17.8356 18.6884 18.1103 18.3207C18.5651 17.7087 18.7332 17.4265 18.7806 17.2012C18.8138 17.047 18.7877 16.779 18.7261 16.6082ZM18.1206 9.10027C18.4091 9.85173 18.5474 10.5257 18.5777 11.3475C18.5826 11.5098 18.5803 11.8072 18.5698 12.0087C18.5479 12.3949 18.5269 12.4716 18.4158 12.5738C18.237 12.7415 17.8887 12.7015 17.7566 12.4994C17.6876 12.391 17.6779 12.3116 17.6913 11.8604C17.7296 10.5256 17.4597 9.48057 16.8093 8.43557C16.0323 7.18184 14.8699 6.33727 13.3584 5.92408C12.9729 5.81891 12.6481 5.75481 12.1429 5.6868C11.8138 5.64373 11.7417 5.62551 11.6605 5.57552C11.4152 5.41837 11.4119 5.02043 11.6565 4.86089C11.7827 4.77667 11.8758 4.77291 12.2872 4.8256C13.4936 4.97636 14.5701 5.33483 15.4546 5.87653C16.0887 6.26532 16.4884 6.61459 17.0031 7.22631C17.5475 7.87872 17.8357 8.36108 18.1206 9.10027Z" fill="#B8C8D9"/>
</svg>
