<svg width="84" height="85" viewBox="0 0 84 85" fill="none" xmlns="http://www.w3.org/2000/svg">
<path d="M62.7117 76.418L62.7087 76.42C49.3795 85.4318 32.8743 86.7698 20.0308 78.475L20.0255 78.4716C7.02173 70.1879 -2.27228 52.145 2.09104 34.9509L2.09127 34.9499C4.27573 26.3071 9.91376 17.7838 17.2848 11.4291C24.6579 5.0727 33.6701 0.965764 42.5493 1.00022L42.5531 0.000222843L42.5493 1.00022C51.4657 1.03468 60.3902 5.19476 67.6029 11.4961C74.8155 17.7972 80.2191 26.1564 82.1566 34.434C86.017 50.9271 76.0929 67.4411 62.7117 76.418Z" stroke="url(#paint0_linear)" stroke-width="2"/>
<path fill-rule="evenodd" clip-rule="evenodd" d="M33.3461 58.2496C30.8275 57.1443 29.0242 54.8658 28.5166 52.1446L25.0519 30.7514C24.889 29.8382 25.1133 28.8912 25.6694 28.1494C26.2316 27.4026 27.0839 26.9253 28.011 26.8402L33.18 26.3677C34.2267 26.2709 34.8119 25.9933 35.9916 25.3333L40.72 22.4497C41.7792 21.8555 42.9811 21.8555 43.9883 22.4179L48.8238 25.3642C49.8046 25.9116 50.9261 26.2603 52.103 26.3677L56.7676 26.8418C57.6781 26.9253 58.5316 27.4026 59.0926 28.1494C59.6539 28.8969 59.8774 29.8541 59.706 30.7742L56.2547 52.1055C55.7406 54.8658 53.9362 57.1443 51.4176 58.2496L45.0742 61.4242C45.0463 61.4376 45.018 61.4506 44.9897 61.4632C44.1612 61.8218 43.2717 62 42.3818 62C41.4923 62 40.6024 61.8209 39.7739 61.4632C39.7456 61.4506 39.7177 61.4384 39.6894 61.4242L33.3461 58.2496ZM37.655 28.2153C36.2712 28.9905 35.1966 29.5297 33.4819 29.6864L28.3121 30.1597C28.313 30.1647 28.3138 30.1695 28.3146 30.1743C28.3159 30.1825 28.3172 30.1905 28.319 30.1987L31.7768 51.5695C32.0754 53.1733 33.1699 54.5468 34.6951 55.2052C34.7234 55.2174 34.7517 55.23 34.7795 55.2443L41.1164 58.4152C41.9235 58.7513 42.8405 58.7513 43.6476 58.4152L49.9841 55.2443L49.994 55.2395C50.0189 55.2277 50.0436 55.216 50.0685 55.2052C51.5938 54.5468 52.6874 53.1725 52.9937 51.5297L56.445 30.1979L51.7877 29.6848C50.1647 29.5362 48.6035 29.052 47.1644 28.2462L42.3826 25.3325L37.655 28.2153ZM41.5549 48.6675C41.1313 48.6675 40.7074 48.5051 40.3845 48.1792L35.4184 43.1786C34.7722 42.5275 34.7722 41.4727 35.4184 40.8216C36.0642 40.1709 37.1138 40.1709 37.7592 40.8216L41.5549 44.6428L48.6613 37.4879C49.3071 36.8372 50.3566 36.8372 51.002 37.4879C51.6486 38.139 51.6486 39.1938 51.002 39.8449L42.7253 48.1792C42.4024 48.5051 41.9788 48.6675 41.5549 48.6675Z" fill="url(#paint1_linear)"/>
<defs>
<linearGradient id="paint0_linear" x1="84" y1="-8" x2="8.17719e-06" y2="85" gradientUnits="userSpaceOnUse">
<stop stop-color="#025FEA"/>
<stop offset="1" stop-color="#70E4EF"/>
</linearGradient>
<linearGradient id="paint1_linear" x1="59.7624" y1="22" x2="20.4978" y2="56.9406" gradientUnits="userSpaceOnUse">
<stop stop-color="#025FEA"/>
<stop offset="1" stop-color="#70E4EF"/>
</linearGradient>
</defs>
</svg>
