<svg width="90" height="90" viewBox="0 0 90 90" fill="none" xmlns="http://www.w3.org/2000/svg">
<path
    fill-rule="evenodd"
    clip-rule="evenodd"
    d="M39.4785 0L50.5215 0C62.1388 0 67.9241 1.51896 73.2575 4.37126C78.5908 7.22356 82.7764 11.4092 85.6287 16.7425C88.481 22.0759 90 27.8612 90 39.4785V50.5215C90 62.1388 88.481 67.9241 85.6287 73.2575C82.7764 78.5908 78.5908 82.7764 73.2575 85.6287C67.9241 88.481 62.1388 90 50.5215 90H39.4785C27.8612 90 22.0759 88.481 16.7425 85.6287C11.4092 82.7764 7.22356 78.5908 4.37126 73.2575C1.51896 67.9241 0 62.1388 0 50.5215L0 39.4785C0 27.8612 1.51896 22.0759 4.37126 16.7425C7.22356 11.4092 11.4092 7.22356 16.7425 4.37126C22.0759 1.51896 27.8612 0 39.4785 0Z"
    fill="#FDE3E2"
    fill-opacity="0.14"
  />
<path
    fill-rule="evenodd"
    clip-rule="evenodd"
    d="M66.3796 30.9209C66.3796 28.2567 64.2204 26.1001 61.5588 26.1001H36.1347C33.4706 26.1001 31.314 28.2593 31.314 30.9209V31.3601H66.3796V30.9209ZM31.314 33.1143V36.6175H54.5447C59.1392 36.6175 62.8738 40.352 62.8738 44.9466V50.4696C64.9068 49.891 66.3796 48.0342 66.3796 45.825V33.1143H31.314ZM29.1211 40.1259H54.5452C57.2041 40.1259 59.3659 42.2878 59.3659 44.9467V59.8508C59.3659 62.5097 57.2041 64.6716 54.5452 64.6716H29.1211C26.4621 64.6716 24.3003 62.5097 24.3003 59.8508V44.9467C24.3003 42.2878 26.4621 40.1259 29.1211 40.1259ZM32.6268 44.0709C30.6938 44.0709 29.1211 45.6436 29.1211 47.5767V50.2066C29.1211 52.1397 30.6938 53.7124 32.6268 53.7124H35.2568C37.1899 53.7124 38.7626 52.1397 38.7626 50.2066V47.5767C38.7626 45.6436 37.1899 44.0709 35.2568 44.0709H32.6268ZM30.8753 60.7266H52.791C53.7614 60.7266 54.5452 59.9429 54.5452 58.975C54.5452 58.0072 53.7588 57.2208 52.791 57.2208H30.8753C29.9074 57.2208 29.1211 58.0046 29.1211 58.9724C29.1211 59.9402 29.9074 60.7266 30.8753 60.7266Z"
    fill="#FD3631"
  />
</svg>
