<svg width="10" height="10" viewBox="0 0 10 10" fill="none" xmlns="http://www.w3.org/2000/svg">
<path d="M2.17196 0.757254C1.78143 0.36673 1.14827 0.36673 0.757742 0.757255C0.367217 1.14778 0.367218 1.78094 0.757742 2.17147L3.58616 4.99989L0.757737 7.82832C0.367212 8.21884 0.367213 8.85201 0.757738 9.24253C1.14826 9.63305 1.78143 9.63305 2.17195 9.24253L5.00038 6.4141L7.82881 9.24254C8.21933 9.63306 8.8525 9.63306 9.24302 9.24254C9.63355 8.85201 9.63355 8.21885 9.24302 7.82832L6.41459 4.99989L9.24302 2.17146C9.63354 1.78094 9.63354 1.14777 9.24302 0.757249C8.85249 0.366724 8.21933 0.366724 7.8288 0.757249L5.00038 3.58568L2.17196 0.757254Z" fill="#111439"/>
</svg>
