<svg xmlns="http://www.w3.org/2000/svg" fill="none" aria-hidden="true" class="GvVRe YfxXw ZudzF" viewBox="0 0 96 48"><path fill="currentColor" fill-rule="evenodd" d="M88 30V6H26.139v24H88zM11.544 12.91 11 14h13v-4l-10.995 1.833a2 2 0 0 0-1.46 1.078zM88 32H24V15.147H10.472L6 27.739V39.16L9 41h6.016a7.5 7.5 0 1 1 14.967 0h37.033a7.5 7.5 0 0 1 14.119-4H88v-5zM9.197 26.463 21 24.192l.027-7.121c-.002.032-8.996-.035-8.996-.035l-2.834 9.427zM80 40.5a5.5 5.5 0 1 1-11 0 5.5 5.5 0 0 1 11 0zm-8.5 0a3 3 0 1 0 6 0 3 3 0 0 0-6 0zm-49 5.5a5.5 5.5 0 1 0 0-11 5.5 5.5 0 0 0 0 11zm0-2.5a3 3 0 1 1 0-6 3 3 0 0 1 0 6z" clip-rule="evenodd"/></svg>