<svg xmlns="http://www.w3.org/2000/svg" fill="none" aria-hidden="true" class="GvVRe YfxXw ZudzF" viewBox="0 0 96 48"><path fill="currentColor" fill-rule="evenodd" d="M28 10.5c.734-1.153 1.828-1.5 3.195-1.5H80a4 4 0 0 1 4 4v24a4 4 0 0 1-4 4h-2a7 7 0 1 0-14 0H32a7 7 0 1 0-14 0h-1c-2.21 0-5 0-5-2V29c0-2 2-3 6-5l10-13.5zM35 22v-9h-6l-9 11 15-2zm41 19a5 5 0 1 1-10 0 5 5 0 0 1 10 0zm-8 0a3 3 0 1 0 6 0 3 3 0 0 0-6 0zm-43 5a5 5 0 1 0 0-10 5 5 0 0 0 0 10zm0-2a3 3 0 1 1 0-6 3 3 0 0 1 0 6z" clip-rule="evenodd"/></svg>