<svg xmlns="http://www.w3.org/2000/svg" width="40" height="20" fill="none" aria-hidden="true" class="YfxXw" viewBox="0 0 96 48"><path fill="currentColor" fill-rule="evenodd" d="M43 37h10V21H43v16zm35-17h4v-8h-4v8zm-16 0h12v-8H62v8zM42 38h12V12H42v26zM32 22l-13 2 5-12h8v10zM16 4s-1 2-1 4 1 4 1 4h5l-5 12s-3 1.5-4 3c-.666 1-1 1.904-1 4 0 1-.25 1.5-.5 2s-.5 1-.5 2v2c0 2 2.552 3 3 3h3a8 8 0 1 1 16 0h28a8 8 0 1 1 16 0h5.62L84 36.598V8c0-4.5-5-4-5-4H16zm14 36a6 6 0 1 1-12 0 6 6 0 0 1 12 0zm-9 0a3 3 0 1 0 6 0 3 3 0 0 0-6 0zm47 6a6 6 0 1 0 0-12 6 6 0 0 0 0 12zm0-3a3 3 0 1 1 0-6 3 3 0 0 1 0 6z" clip-rule="evenodd"/></svg>