<svg xmlns="http://www.w3.org/2000/svg" width="512" height="512" viewBox="0 0 512 512" fill="none">
<g clip-path="url(#clip0_104_504)">
<path d="M58.3721 286.636V332.219H74.6406V286.636H88.014V272.528H44.9997V286.636H58.3721Z" fill="#006E90"/>
<path fill-rule="evenodd" clip-rule="evenodd" d="M95.9641 332.219V272.528H112.967C119.626 272.528 124.267 272.834 126.89 273.445C129.513 274.058 131.776 275.084 133.679 276.524C135.826 278.155 137.477 280.235 138.633 282.762C139.788 285.289 140.367 288.076 140.367 291.119C140.367 295.74 139.231 299.499 136.962 302.392C134.691 305.288 131.382 307.211 127.033 308.164L142.761 331.42L163.075 272.528H183.462L204.092 332.219H187.906L184.889 321.536H161.77L158.671 332.219H124.913L111.214 308.857V332.219H95.9641ZM111.215 300.742H114.231C117.737 300.742 120.298 300.143 121.916 298.947C123.534 297.752 124.343 295.877 124.343 293.321C124.343 290.331 123.589 288.204 122.08 286.941C120.572 285.676 118.037 285.045 114.476 285.045H111.215V300.742ZM181.464 309.917H165.277L171.27 290.222C171.623 288.999 171.971 287.721 172.311 286.39C172.65 285.058 172.996 283.659 173.35 282.191C173.867 284.285 174.288 285.997 174.614 287.328C174.941 288.661 175.199 289.625 175.389 290.223L181.464 309.917Z" fill="#006E90"/>
<path d="M209.802 332.219V272.528H225.499L248.047 303.229C248.481 303.856 249.193 305.111 250.186 307.002C251.178 308.891 252.274 311.14 253.469 313.749C253.143 311.276 252.905 309.075 252.756 307.145C252.606 305.214 252.531 303.501 252.531 302.006V272.527H268.146V332.218H252.531L229.983 301.394C229.52 300.768 228.794 299.512 227.802 297.623C226.809 295.732 225.729 293.512 224.561 290.956C224.887 293.457 225.123 295.672 225.274 297.602C225.422 299.533 225.499 301.246 225.499 302.74V332.219H209.802Z" fill="#006E90"/>
<path d="M290.755 319.09C288.404 317.732 286.019 315.68 283.6 312.934L276.258 325.044C279.412 328.061 282.693 330.277 286.104 331.69C289.515 333.102 293.3 333.81 297.46 333.81C304.391 333.81 309.937 331.887 314.095 328.041C318.253 324.193 320.333 319.105 320.333 312.771C320.333 310.27 319.965 307.995 319.231 305.941C318.497 303.889 317.423 302.13 316.01 300.661C313.917 298.515 309.554 296.543 302.923 294.749L302.189 294.545C299.117 293.73 297.043 292.874 295.97 291.977C294.896 291.08 294.36 289.885 294.36 288.39C294.36 286.922 294.971 285.72 296.195 284.781C297.418 283.845 299.009 283.375 300.966 283.375C302.87 283.375 304.793 283.777 306.736 284.579C308.679 285.379 310.575 286.57 312.424 288.145L317.521 276.444C314.884 274.649 312.09 273.31 309.143 272.427C306.193 271.543 303.075 271.102 299.786 271.102C293.696 271.102 288.742 272.901 284.925 276.505C281.105 280.107 279.196 284.761 279.196 290.469C279.196 294.872 280.406 298.338 282.825 300.865C285.244 303.392 289.376 305.445 295.22 307.022C299.489 308.164 302.226 309.271 303.437 310.345C304.645 311.419 305.25 312.948 305.25 314.932C305.25 316.726 304.549 318.208 303.15 319.376C301.75 320.544 299.963 321.129 297.789 321.129C295.45 321.129 293.106 320.449 290.755 319.09Z" fill="#006E90"/>
<path d="M329.468 332.219V272.528H366.042V285.617H345.329V295.972H364.859V308.776H345.329V332.219H329.468Z" fill="#006E90"/>
<path d="M374.89 272.528V332.219H411.462V318.845H390.749V308.776H410.28V295.972H390.749V285.617H411.462V272.528H374.89Z" fill="#006E90"/>
<path fill-rule="evenodd" clip-rule="evenodd" d="M422.226 332.219V272.528H439.229C445.888 272.528 450.529 272.834 453.152 273.445C455.775 274.058 458.039 275.084 459.94 276.524C462.089 278.155 463.74 280.235 464.895 282.762C466.049 285.289 466.628 288.076 466.628 291.119C466.628 295.74 465.492 299.499 463.224 302.392C460.952 305.288 457.644 307.211 453.295 308.164L469.564 332.219H451.175L437.475 308.857V332.219H422.226ZM437.475 300.742H440.493C444 300.742 446.561 300.143 448.178 298.947C449.795 297.752 450.605 295.877 450.605 293.321C450.605 290.331 449.851 288.204 448.342 286.941C446.833 285.676 444.299 285.045 440.738 285.045H437.475V300.742Z" fill="#006E90"/>
<path fill-rule="evenodd" clip-rule="evenodd" d="M144.315 182.118V261.707H166.768C175.827 261.707 182.351 261.399 186.338 260.782C190.325 260.165 193.677 259.133 196.395 257.683C199.73 255.908 202.294 253.408 204.088 250.181C205.882 246.957 206.779 243.223 206.779 238.982C206.779 233.075 205.183 228.355 201.995 224.821C198.806 221.287 194.383 219.303 188.73 218.868C193.766 217.491 197.436 215.471 199.739 212.807C202.04 210.143 203.191 206.546 203.191 202.015C203.191 198.427 202.421 195.265 200.88 192.529C199.339 189.792 197.101 187.609 194.166 185.978C191.592 184.564 188.52 183.568 184.951 182.988C181.382 182.409 175.103 182.118 166.114 182.118H144.315ZM168.779 213.921H164.429V197.883H169.105C174.505 197.883 178.138 198.491 180.005 199.704C181.871 200.919 182.804 203.03 182.804 206.037C182.804 208.937 181.806 210.977 179.814 212.154C177.821 213.333 174.141 213.921 168.779 213.921ZM172.04 245.451H164.429L164.428 228.109H172.366C177.657 228.109 181.281 228.771 183.238 230.093C185.196 231.416 186.174 233.745 186.174 237.079C186.174 240.086 185.106 242.235 182.967 243.521C180.828 244.808 177.186 245.451 172.04 245.451Z" fill="#006E90"/>
<path fill-rule="evenodd" clip-rule="evenodd" d="M210.475 261.706L237.929 182.118H265.111L292.619 261.706H271.037L267.014 247.463H236.191L232.058 261.706H210.475ZM240.863 231.969H262.447L254.346 205.711C254.092 204.915 253.748 203.628 253.313 201.852C252.878 200.077 252.315 197.793 251.626 195.002C251.155 196.959 250.693 198.826 250.24 200.601C249.786 202.377 249.324 204.08 248.854 205.711L240.863 231.969Z" fill="#006E90"/>
<path d="M300.23 182.118V261.706H321.161V222.401C321.161 220.408 321.06 218.124 320.862 215.551C320.663 212.979 320.346 210.025 319.91 206.689C321.467 210.097 322.909 213.059 324.232 215.578C325.555 218.098 326.523 219.774 327.14 220.607L357.203 261.706H378.023V182.118H357.203V221.423C357.203 223.417 357.303 225.699 357.502 228.272C357.7 230.846 358.018 233.781 358.454 237.079C356.857 233.6 355.399 230.601 354.077 228.082C352.752 225.563 351.801 223.887 351.223 223.053L321.16 182.118H300.23Z" fill="#006E90"/>
<path d="M395.093 261.705V182.118H416.566V218.269L441.737 182.118H467.016L437.605 220.933L469.571 261.705H442.498L416.566 225.988V261.705H395.093Z" fill="#006E90"/>
<path d="M38.7703 181.915H126.912V197.687H38.7703V181.915Z" fill="#006E90"/>
<path d="M126.912 212.533H38.7705V228.305H126.912V212.533Z" fill="#006E90"/>
<path d="M38.7705 245.933H126.912V261.706H38.7705V245.933Z" fill="#006E90"/>
</g>
<defs>
<clipPath id="clip0_104_504">
<rect width="512" height="512" fill="white"/>
</clipPath>
</defs>
</svg>