<?xml version="1.0" standalone="no"?>
<!DOCTYPE svg PUBLIC "-//W3C//DTD SVG 20010904//EN"
 "http://www.w3.org/TR/2001/REC-SVG-20010904/DTD/svg10.dtd">
<svg version="1.0" xmlns="http://www.w3.org/2000/svg"
 width="700.000000pt" height="700.000000pt" viewBox="0 0 700.000000 700.000000"
 preserveAspectRatio="xMidYMid meet">
<metadata>
Created by potrace 1.14, written by Peter Selinger 2001-2017
</metadata>
<g transform="translate(0.000000,700.000000) scale(0.100000,-0.100000)"
fill="#000000" stroke="none">
<path d="M3820 6858 c-303 -31 -612 -159 -915 -378 -55 -40 -102 -75 -105 -79
-3 -3 -34 -31 -70 -61 -36 -30 -90 -78 -120 -107 -37 -36 -66 -55 -90 -59
-173 -30 -374 -97 -555 -185 -76 -37 -87 -44 -215 -127 -687 -444 -1260 -1381
-1570 -2567 -25 -99 -69 -288 -76 -335 -3 -19 -8 -38 -9 -41 -2 -3 -7 -28 -11
-55 -3 -27 -8 -51 -9 -54 -2 -3 -6 -26 -9 -50 -4 -25 -9 -56 -11 -70 -3 -14
-7 -45 -10 -70 -3 -25 -7 -54 -9 -65 -2 -11 -7 -56 -11 -100 -4 -44 -10 -93
-12 -110 -8 -59 -10 -561 -3 -620 5 -33 11 -86 15 -118 54 -492 260 -891 568
-1100 156 -107 390 -196 577 -222 25 -3 52 -8 60 -10 109 -29 508 -23 731 10
57 9 115 17 129 19 14 2 81 15 150 30 l125 28 120 -60 c259 -129 484 -204 735
-246 52 -9 106 -18 120 -21 93 -18 408 -24 584 -11 107 8 157 15 306 42 157
28 458 113 545 154 11 5 49 21 85 35 508 207 1036 604 1400 1055 25 30 47 57
50 60 3 3 17 21 30 40 13 19 27 37 30 40 3 3 38 52 77 110 123 183 229 380
328 615 42 98 126 374 141 464 3 14 11 60 19 101 25 134 30 212 30 425 0 184
-6 281 -20 353 -2 11 -6 35 -9 53 -3 19 -8 45 -11 59 -3 14 -7 37 -10 53 -6
31 -26 107 -50 187 -106 356 -318 745 -584 1075 -36 44 -68 82 -71 85 -4 3
-39 68 -78 145 -39 77 -93 176 -119 220 -45 76 -197 305 -228 343 -7 9 -55 69
-106 132 -107 133 -366 395 -489 494 -452 362 -941 538 -1370 494z"/>
</g>
</svg>
